<svg xmlns="http://www.w3.org/2000/svg" width="250" height="160" viewBox="0 0 250 160">
    <g fill="none" fill-rule="evenodd">
        <path stroke="#FEFEFE" stroke-width="1.5" d="M5.31 84.154V123.3h6.753v9.376h4.242v5.473H61.52v5.234h18.12v6.259h13.812V159h12.35v-5.785h33.678v5.358h77.382v-12.16l5.79-.003v-9.73l1.075-.221 1.662.222 6.346-2.299 5.812-3.127 2.113-3.046-.32-2.07 2.43-5.25 1.807-.34-.047-1.342 1.287-.239 2.71-6.863-.161-1.915.822-3.88.813-4.285-.604-1.046.41-6.32-1.012-2.527.534-3.596-2.981-8.047-1.062-7.273.881-.979-1.314-2.56v-5.365l-2.986-6.29-.957-3.552-1.922-1.55-8.05-17.437-13.687-9.205-7.283-1.552-5.442-1.36-2.858-.036-.685-3.01-2.09-.195-.141-1.047-.45-.7-3.485-.059-.62 1.411-7.542-2.385-4.74-.352-4.928-4.262-4.304-6.028-1.428.077-3.203-2.182-1.094.14L159.525 1l-8.182.477-10.465 1.844-4.668-.123-3.926.869-2.482 1.032-4.87-.807-4.664.458-3.93-.582-1.427.24-4.553-.88-2.587.436-1.08-.436-14.793.616-10.177-.616-4.36.963-1.39-.39-5.442.689-.54 1.033-3.05.727-2.121-.344L56.48 8.08l-2.043 1.838-3.13-.013-3.434-.829-11.655 3.406-1.814 2.565-2.16.153-3.977 4.112h-1.62l-4.511 4.252-3.096 5.323-2.046 7.304-3.176 7.046 2.335 1.935-.385.835h-2.584v5.61H1v32.536z"/>
        <path fill="#FEFEFE" d="M65 128h24.081l11-26.277h49.946L161.176 128H186L138.73 22h-26.46L65 128zm41.77-42.905l18.433-44.686 18.135 44.686H106.77z"/>
    </g>
</svg>
