<svg xmlns="http://www.w3.org/2000/svg" width="264" height="207" viewBox="0 0 264 207">
    <g fill="none" fill-rule="evenodd">
        <path stroke="#FEFEFE" stroke-width="1.5" d="M107.096 8.881H99.95V2.765H73.292v5.076h-6.365V3.104h-14.98v13.59H40.711v7.136H37.65v6.455h-5.448v10.532h6.128v6.671l-4.658 4.422v.776l-1.362.825-.839 1.575-6.155 4.418h-.264v.187l-2.413 1.733-3.189 1.089v.786l-5.64 1.706-1.25 1.09-1.496 1.2-1.345 1.37-1.251 1.805H2.24v11.25L1 84.442l1.24 3.09v3.227h1.297l.543 1.355 1.568 3.72.1 1.226 2.457 7.282.802-.115 4.05 14.463 3.127 9.223 1.137 3.781 4.118 11.689 1.322 3.88 4.14 11.026 9.43 2.391.125-.604 11.2 3.703-.218.545 12.764 3.129.51-.508 6.364 2.583-.091.51 12.653 6.695 27.468 11.546 11.057.756 30.853 9.631 9.028-2.646 7.586 1.541 1.877-.04 8.156 3.753 1.782-.04L193.17 206h3.397l2.1-6.706h14.314v-3.198h3.605v-4.959h6.924v-7.21h2.717v-1.953h2.559v-4.206h2.121v-2.555h2.546v-4.806h6.472v-13.043h-2.295v-14.85l.597-.777.608-.245 6.755-11.704 3.573-2.639L263 98.325l-13.138-42.234-1.222-12.155-31.272-7.583-12.044-16.013-14.744.314-7.842 4.278-25.999-.152-11.867 1.017-6.987-6.335-4.974-.364-3.248-2.751V1h-3.158v4.585z"/>
        <path fill="#FEFEFE" d="M102.45 101.118h45.495c10.631 0 17.666 5.333 17.666 15.843 0 14.431-10.474 16.47-21.105 16.47H102.45v-32.313zm0-44.55h39.71c13.758 0 19.23 4.236 19.23 13.648 0 12.549-8.598 14.274-15.165 14.274h-43.774V56.57zM79 151h73.01c30.017 0 37.99-20.392 37.99-32.941 0-18.667-11.725-25.255-20.324-27.765 5.785-2.98 15.165-7.372 15.165-23.372 0-14.275-6.566-27.922-32.05-27.922H79v112z"/>
    </g>
</svg>
