<svg xmlns="http://www.w3.org/2000/svg" width="264" height="184" viewBox="0 0 264 184">
    <g fill="none" fill-rule="evenodd">
        <path stroke="#FEFEFE" stroke-width="1.5" d="M1 157.64h9.829v21.344h20.662V183h80.518v-14.821l.774-.03 16.667 1.632 25.87-5.642h1.992l22.111-3.033v-1.383l20.44-4.052 10.383-8.358 11.258-18 9.27-21.617 25.066-22.009v-2.704l2.701-9.696 2.99-12.192 1.044-3.893-.778-.78 1.203-4.63-.719-1.227.719-7.803-4.896-7.94v-1.285l-4.162-3.19-.155-1.907-.933.039-5.367-6.929-5.444-3.58-15.088-4.048-1.029-1.17-12.149-3.515-1.315.715-1.14-.241-.338-1.724-9.654-2.59-1.555.577-13.57-2.887.231-1.492-9.1-.595-6.493 2.219-5.716 4.048-1.09-.467-15.36 7.122-.66 1.531-4.83 1.698-3.415-2.062-8.394.381-2.844-2.249-6.953-.094-2.792-1.368-11.415 1.271-4.077-1.21-10.747 4.188-2.247 1.014-2.288-.415-11.589 6.267-2.333.233-4.822 5.372-2.372.465-2.954 5.49-1.867.661-1.168 3.27-4.238 2.412-5.6 8.25-2.449.896-5.56 10.548-2.607 1.907-1.208 3.12-1.94 2.29-1.713.272-6.11 9.004-4.233 1.466-1.567 3.392-2.01.5-1.935 4.543-3.705 1.879-4.72 9.808.555 14.82H1z"/>
        <path fill="#FEFEFE" d="M193 72.822C190.506 48.36 170.551 28 132.202 28 88.552 28 70 55.777 70 87.5S89.019 147 129.395 147c45.677 0 60.331-23.99 63.605-46.243h-25.255c-2.026 11.995-9.977 28.567-34.296 28.567-23.073 0-39.13-16.256-39.13-39.772 0-29.356 15.902-43.876 37.57-43.876 19.8 0 33.362 10.259 35.856 27.146H193z"/>
    </g>
</svg>
