<svg xmlns="http://www.w3.org/2000/svg" width="188" height="200" viewBox="0 0 188 200">
    <g fill="none" fill-rule="evenodd">
        <path stroke="#FEFEFE" stroke-width="1.5" d="M1.248 132.99l.672 4.02-.92 1.415 8.363 9.743v3.591l7.676 14.357 9.354.95 8.903 11.75 15.215 2.105 2.396-.88 6.98 4.797 2.903-.05 2.75 1.371 1.659 3.946.825-.52 8.683 2.04 1.231-.352 2.484 1.165 1.013-.368 1.12.473h3.328l4.5.868 8.89 3.77 1.691-.777 3.337 1.392 1.197-.893.783.86 11.202.145 2.202 1.092 1.125-.526h2.074l2.22-3.668 14.346-.043 10.614 2.166 8.268-4.748 2.844-.136 2.361-1.08 2.085-1.085 2.164-3.465.975-.633.68-1.54h11.41v-21.666h-1.916v-7.044h1.192v-7.978h1.023v-20.871l.272-.595-.587-3.477 1.42-1.763-.014-1.973 1.825-3.265.062-1.83 1.49-7.008 1.382-3.548-1.86-6.413.98-2.202-.245-6.709-1.44-5.73.004-.015H187v-71.66h-14.398l.113-.927-5.528-5.484-7.735-.414-.289-1.397-13.158 1.419-7.372-1.029-10.435 2.596-2.176-1.419-7.596-1.74L116.31 1l-4.895 1.665-2.396-.588H84.022l-7.095 2.222-2.788-1-1.804.204-2.99-.742-6.034 2.825-2.869.212-8.17 6.266-4.159.49-5.088 3.183-.342 2.397-10.468 9.255h-8.072l-3.425 2.936-4.941.44-3.083 2.696-1.195 6.588-1.887 3.201.588 19.633-4.353 5.532v7.981l1.37 5.286-3.377 5.386-.44 7.197 1.24 2.594-1.32 2.324-.192 9.186-.422 1.893.89 1.187-2.056 6.805.783 3.134-.831 1.125.342 1.542L1 125.549v4.848l.638.973z"/>
        <path fill="#FEFEFE" d="M47 152h67.108C152.842 152 164 120.546 164 96.118 164 63.546 153.001 38 108.37 38H47v114zm23.91-96.118h32.358c13.39 0 36.822 2.236 36.822 39.278 0 33.37-18.331 38.958-35.546 38.958H70.91V55.882z"/>
    </g>
</svg>
