<svg xmlns="http://www.w3.org/2000/svg" width="260" height="161" viewBox="0 0 260 161">
    <g fill="none" fill-rule="evenodd">
        <path stroke="#FEFEFE" stroke-width="1.5" d="M1.703 94.001l-.337 1.294 2.416 9.11 2.54 4.277v9.868h2.126v2.834h2.597v2.599h5.212l4.234 3.727v12.338h12.015v6.685H72.87l4.89.901 7.29 1.228 7.69 1.33 7.307 1.65v.149l4.115.687v.125l4.694.563 18.863 1.788 2.91.277 3.279-.05 4.322-.425 6.073-2.834 1.911-.196 1.827.68 2.528 1.484 1.328.362 3.62.56 1.027.341 3.573 1.625 4.04 1.246 3.27.634 6.939.808 1.967-.104.307.438h6.09l.76-.524 2.43.307 17.3-3.683 4.594-.783.022-.011h11.268v-1.393h1.392v-5.201l1.52-1.164h9.616v-5.27h2.985v-1.095h4.373V138.3h1.987v-1.493h1.597v-2.793h1.995v-5.928l.188-.259h3.403v-4.69l6.178-8.513 3.738-13.592.096-5.044.437-4.073.391-.926-2.593-24.37-2.49-12.108h2.565V34.378h-6.795v-6.366h-5.251l-2.567-4.25-2.023-4.016V13.59h-2.518V8.782h-9.655l-4.394-1.727-10.57-1.867-5.914.365-14.934 1.82-1.676-.026V5.188h-65.679V1H101.85v4.188h-4.807v2.034l-5.676-.27-9.289 1.575-8.648 2.605-12.968 6.03L45.348 28.2l-12.842 9.921-14.334 14.091L4.374 73.674l-2.491 9.103-.208 3.885-.483.648L1 92.848z"/>
        <path fill="#FEFEFE" d="M84 131h96v-17.098h-73.07V83.675h68.943V66.577H106.93V39.098h71.847V22H84z"/>
    </g>
</svg>
