<svg xmlns="http://www.w3.org/2000/svg" width="187" height="176" viewBox="0 0 187 176">
    <g fill="none" fill-rule="evenodd">
        <path stroke="#FEFEFE" stroke-width="1.5" d="M124.325 174.768l3.755-.63 1.322.862 9.103-7.824h3.356l13.414-7.18.887-8.75 10.979-8.33 1.967-14.233-.823-2.242 4.482-6.528-.045-2.718 1.281-2.572 3.687-1.55-.486-.774 1.908-8.121-.331-1.154 1.087-2.322-.343-.949.442-1.046v-3.115l.812-4.209 3.521-8.318-.726-1.582 1.301-3.12-.834-1.12.803-.731.136-10.482 1.02-2.06-.49-1.052v-1.94l-3.429-2.074-.04-13.423 2.025-9.929-4.436-7.735-.128-2.66-1.009-2.207L177.48 21l-3.238-2.025-.59-.912-1.44-.636V6.753h-20.245v1.792h-6.581V7.428h-7.455v-.956h-19.5l-.556-.255-3.249.549-1.646-1.327-1.845.013-3.05-1.706-1.71-.058-6.547-1.397L96.513 1 90.52 2.739l-2.058-.916-6.267.23-5.355 1.346-.013-.003V1H9.87v13.47l-.865-.107-5.124 5.171-.387 7.237-1.306.27 1.327 12.31-.96 6.894 2.423 9.764-1.326 2.034-1.626 7.106L1 67.13l1.554 4.579-.548 2.24v23.385l2.077 6.638-.933 2.607.189 1.69-.693 2.796 2.638 5.643.198 2.686 5.856 7.642.456 3.89 2.975 4.76 2.24.32 8.646 9.794v7.55l2.744 3.204.413 4.623 2.516 2.883 6.158 1.118 2.99 1.765 18.343-.549 5.17 4.073h7.457l4.938-1.282 5.033 3.159 6.724.41 2.424-1.157 2.17 1.231 8.582.181 1.77.394 1.111-.831 6.358 1.922 2.928-.733 1.052.778 1.44-.32 1.396.782h4.529l.91-.599z"/>
        <path fill="#FEFEFE" d="M51 129h22.475V82.543h62.929V65.76h-62.93V38.784H140V22H51z"/>
    </g>
</svg>
