<svg xmlns="http://www.w3.org/2000/svg" width="273" height="176" viewBox="0 0 273 176">
    <g fill="none" fill-rule="evenodd">
        <path stroke="#FEFEFE" stroke-width="1.5" d="M6.647 130.934l3.382 2.774 2.96 6.073 2.904 5.312 5.016 6.254 2.886 4.468 6.461 5.032 8.216 1.869 2.565 1.56 5.39.646 6.245-1.188 3.502.814 6.63 3.43 4.6 1.251 4.51 1.296 3.856-.204 12.958 1.97 4.338.102 8.462 2.173h115.207v-2.175h6.277v-2.074l1.577-.2 4.686-1.426 14.922-2.31H272V128.49h-3.974v-14.668h-4.768v-4.385h-1.99v-2.476h-2.776v-3.49h-2.225V80.509h-6.892v-2.702h-4.323l-7.644-5.27-9.265-6.228-1.132-.026-3.377-5.331-8.564-5.094-3.138-.678-2.305-1.786-7.692-14.002-9.822-6.114-1.3-.847-.692-1.73-2.004-4.789-2.285-1.8-1.163-1.71-4.33-2.99-2.593-1.344-1.4.107-3.896-1.043-1.258-.059-4.256-1.944-1.881-.396-10.616-4.514-5.864-2.475-12.345-.816-3.506-.919-3.791-.512-6.867-3.931-7.369.747-7.491 2.61-7.048 4.9-5.317 5.154-4.266 1.155-2.286 2.174h-1.295l-2.343 3.405-8.064 5.764-5.902.848-3.356 2.036-4.505 1.91-3.772 1.587-1.946 2.648-6.536 3.558-7.622 5.95-9.174 3.893-8.226 7.142-10.79 18.146-3.091 5.8-2.624 3.728-2.361 5.399h-.785l-1.121 6.125-1.84 11.194-.894 5.227-.719.795L1 118.438z"/>
        <path fill="#FEFEFE" d="M195 80.996h-56.25V98.82h32.28c-3.835 18.62-15.021 29.92-39.47 29.92-20.136 0-39.631-11.3-39.631-41.38 0-24.986 11.346-42.97 40.909-42.97 15.5 0 29.882 6.525 34.197 21.963h25.888c-2.557-22.281-24.93-39.788-59.446-39.788-46.502 0-66.477 28.01-66.477 60s18.856 60 67.116 60c18.058 0 34.038-6.684 43.466-17.984l3.356 14.801H195V80.996z"/>
    </g>
</svg>
