<svg xmlns="http://www.w3.org/2000/svg" width="268" height="176" viewBox="0 0 268 176">
    <g fill="none" fill-rule="evenodd">
        <path stroke="#FEFEFE" stroke-width="1.5" d="M4.61 54.683l.598 4.966 2.605 4.417v4.144l2.28 5.301v1.858l2.594 8.413-.498 1.769 1.22 5.908 2.546 2.266 1.521 3.94 2.115 3.78 2.07 4.943.552 1.883.831.984 14.793 30.806.83 3.426 2.687 2.493 13.212 16.945 3.271 1.652 3.931 2.768 9.428 2.404 14.557.964.835.619 14.553 1.391 2.706.849 23.618.81 8.423-1.75 21.847-3.012 26.026-3.405 8.238-.363.427-.15v.15h57.87v-7.826h8.65v-4.758H267V68.804h-18.706V17.353h-55.868v.368l-2.021.267-1.617-1.143-12.372-2.613-9.01-2.855-7.331-.584-2.531-1.57h-8.547l-6.243-3.312-2.214.542-14.185-1.868-6.977-1.712-5.65.718-5.873-1.062-12.85-1.147-3.237 1.159-4.186-1.159-8.254 1.147-4.876.565-1.272-1.38-8.754-.332-1.093.78-8.046.367-1.22.671-11.385.615-7.171.936-.759 1.104L20.61 7.954l-2.216 3.701-5.953 3.174-9.17 13.228-.166 7.125L1 39.876z"/>
        <path fill="#FEFEFE" d="M75 142.382h23.822v-51.73h70.356v51.73H193v-114h-23.822V72.77H98.822V28.382H75z"/>
    </g>
</svg>
