<svg xmlns="http://www.w3.org/2000/svg" width="204" height="220" viewBox="0 0 204 220">
    <g fill="none" fill-rule="evenodd">
        <path stroke="#FEFEFE" stroke-width="1.5" d="M1.25 165.093h5.388l6.199 21.132h-.13v5.852h-8.47v22.68h11.992V219h47.508v-2.597h130.287v-31.508l.586-1.685 1.074-9.102-.958-1.36 1.64-12.757-.68-.32.828-12.045-1.06-3.455.336-2.166-1.138-8.4 1.166-9.22-.556-1.665.688-.634.767-5.732-.74-5.258.926-1.818 1.298-8.432.007-3.035 2.11-15.141-.357-3.618 1.575-7.294-.198-8.877.912-4.541-1.667-1.895.105-2.571-.45-4.544.635-.238 1.113-11.44-2.304-.316-3.523-9.248-9.819-8.221-44.4-14.725-7.857 1.744L122.03 1l-12.102 1.25-2.13.617-.934-.683-25.291 5.315-44.77.538-7.34 1.215-3.896-3.181-9.094 2.362-2.412 7.602-.105 16.957L9.477 73 4.02 87.992l-.936 28.239 2.737 19.63.196 19.37H1.25z"/>
        <path fill="#FEFEFE" d="M86.25 159h26V37h-26z"/>
    </g>
</svg>
