<svg xmlns="http://www.w3.org/2000/svg" width="45" height="48" viewBox="0 0 45 48">
    <g fill="#FEFEFE" fill-rule="evenodd">
        <path d="M10.07 16.135c3.95 0 3.95-5.65 0-5.65-3.785 0-3.45 5.65 0 5.65zM4.562 4.006h11.072V0H4.562v4.006zM17.97 9.823c1.894 4.94-.778 11.636-7.9 11.636-7.123 0-9.794-6.696-7.9-11.636H.943V4.61h18.307v5.214h-1.28zM0 45.191l6.023 2.32 4.071-9.393 4.19 9.393 5.904-2.32-10.094-18.84zM34.868 6.138c-5.271 0-5.105 7.878 0 7.878 5.102 0 5.269-7.877 0-7.878m0-5.691c13.037 0 13.037 19.316 0 19.316-13.036 0-13.036-19.316 0-19.316M27.171 27.014v19.8h16.334V40.32h-9.754v-6.818h9.754v-6.489z"/>
    </g>
</svg>
