<svg xmlns="http://www.w3.org/2000/svg" width="247" height="234" viewBox="0 0 247 234">
    <g fill="none" fill-rule="evenodd">
        <path fill="#FEFEFE" d="M210.732 0v3.364h-1.944v2.392h-2.351V7.97h-24.304v2.958l4.126-.094v.253l-.06.059-.393.535-.416.33-.46.16-.508.034-.446-.054-.477-.039-.481.05-.403.143-.393.26-.262.156-.38.082-.649-.05-.634-.092-.746-.055-.468.015-.417.046-.3-.02-.336-.08-.66-.167-.81-.18-.773-.151-.636-.109-.7-.104-.88-.114-1.116-.116-1.14-.094-1.22-.078-1.566-.077-1.192-.051-.417.028-.471.124-.605.248-.534.227-.402.125-.617.222-.35.057-.297-.014-.36.063-.359.213-.39.487-.453.826-.462 1.07-.288.808-.335.513-.382.25-.667.296-.449.298-.359.355-.311.305-.38.11-.449-.048-.47-.086-.368-.046-.336.019-.273.125-.335.38-.416.643-.283.273-.272.078-.253-.037-.532-.085-.92-.12-.46-.09-.43-.117-.513-.13-.49-.082-.382-.015-.568.05-.735.247-.529.355-.273.197-.941.233-1.023.316-1.457.573-.953.425v-.545h-20.16v.879h-1.348v2.352h-.985v.314l-.241.053-.56.176-.329.15-.296.174-.29.225-.21.11-.147.01-.326-.03-.596-.044-.252.018-.604.194-.77.224-.626.172-.188.052-.793.243-.36.13-.682.297-.475.267-1.078.68-.326.041-.52-.196-.277-.212-.234-.064-.215.071-.176.026-.187-.132-.357-.36-.356-.244-.587-.218-.684-.067-.604.048-1.13.224-1.977.486-2.942.77-.533.03-.622.258-.286.211-.565.415-1.77 1.177-1.152.565-1.47.46-.533.268-.525.539-.298.517-.285.138-.399-.076-.365-.105-.565.024-.593.22-.945.275-1.498.522-1.964.7-.894.39-.253.214-.306.622-.171.285-.465.306-.4.28-.767.71-.71.701-.591.42-1.036.43-.946.276-.245.106-.542.494-.73.39-.954.316-.97.335-.92.401-.604.282-.796.358-.837.324-.538.23-.54.379-.35.353-.615.96-.213.318-.193.099-.548-.099-.41-.113-.389-.028-.313.092-.337.267-.512.303-.49.324-.323.297-.21.064-.253-.126-.22-.211-.159-.008-.214.084-.495.44-.663.626-.355.486-.262.716-.14.254-.274.216-.458.18-.51.365-.3.516-.108.667-.154.43-.517.51-.384.508-.36.485-.49.432h-7.816l-.008 2.054H53.38v2.54h2.052v2.295l-.122.062-.61.439-.621.612-.243.298-.444.614-.586.752-.205.236H50.92v1.748l-.062.069-.146.255-.15.7-.28.882h-3.015v1.576h1.848l-.103.174.1.755.049.15v2.217l-.02.018-.348.275-.32.214-.297.078-.34-.052-.596-.136-.623-.11-.496-.082-.273-.062-.195-.134-.08-.155-.035-.237-.046-.178-.21-.107-.501-.08-.456-.057-.483-.03-.462.004-.538.044-.508.082-.592.143-.454.115-.187.004-.238-.048-.876-.286-.746-.213-.99-.254-1.746-.407-.875-.212-.792-.201-.34-.014-.403.056-.363.164-.485.217-.791.22-.79.095-.858.018-1.052-.027-1.091.048-.838.106-1.349.316-.828.29-.812.37-.896.5-.45.202-.692.122-.872.04-.92.178-1.194.49-.766.5-.663.569-.956.874-.776.664-.762.7-.772.785-.542.333-.555.367-1.083.677-1.209.737-.426.285-.314.249-.325.292-.535.543-.56.601-.287.208-.167.077-.174.003-.227-.02-.171-.008-.198.025-.178.059-.58.47-.448.583-.621 1.059-.425 1.002-.462 1.44-.376 1.343-.427 1.53-.412 1.748-.186.711-.36.69-.321.94L3.2 92.41l-.042 1.059-.108 1.221-.206.91-.307 1.043-.03.72.042.156H0v50.17h14.808v12.122h-2.19v6.162h6.531v3.276h2.423v1.654h2.218v2.17h2.584v1.914h4.12v7.332h-2.667v5.42h16.276v3.546h-3.455v3.372h7.444l.02 1.571.152 1.12.721 2.036.847 1.37.767.89.794.445.653.477.672.832.57 1.057.47.629 1.701 1.738 1.06 1.175 1.365 1.414.7.865.549.476.582.188.45.143.434.42.231.516.523.898.62.683 1.026.816.55.471.296.709.35.565.656.28.991.161.762-.176.445-.007.194.025v9.47h4.747l.37.483.339.34.383.734.514.756.556.215.48-.012.01.003v1.903h10.719v1.463H98.3V234h13.034v-2.202h11.675v-2.586h9.547v-5.615h-2.281v-1.655h-.833v-2.702h-1.652v-2.804h-1.278v-1.454h-1.155v-.493l.47-.492.707-.877.566-1.019 1.3-1.359.656-.71 1.216-.587 1.827-1.013.656-.59.392-.583.882-.665.976-1.008 1.533-1.564.568-1.033 1.085-.682.596-.435.205-.623 1.37-1.382.463-.74.569-1.681 1.563-2.015.903-1.244.287-.648 1.551-1.778 1.045-1.378.168-.631.042-.753.54-1.049-.154-1.38.118-.925-.346-.796-.42-1.202-.243-1.001-.214-.716.133-1.094.526-.804.12-.314.038-.527.382-.99.694-1.177.736-1.678 1.477-2.445.893-.949.823-.404.895-.133.889-.243.897-.403.526-.332.767-.636.798-1.035.913-1.09 1.3-1.99 1.591-1.546.768-1 .419-.793.506-.305.872-.375.926-.555.582-.511.632-.864.385-.825.715-.319.362-.588 1.055-1.828.58-1.443.133-1.492.26-.82.627-1.08.563-.41.575-.658.331-1.1-.595-.832-.012-1.142.325-.114.354-.253.709-.32.6-.163.248-.469.606-.077.366-.135.547-.56.584-.397.901-.264.373-.648.042-.517.198-1.055.124-.992.783-1.521.679-.557.508-.608.413-.472.608-.617.47-.622.21-.386.193-.091 1.279-.047 1.567-.267 1.471-.15.608-.184 1.467-1.022 1.264-1.068.632-.563.46-.614 1.069-.893.982-.555.633-.53.653-.89.271-.439.29-.16.588-.305 1.033-.764.62-.379.487-.49.906-.742 1.26-.805 1.426-.752.88-.432.458-.323.37-.419 2.28-2.995.743-.888.56-.28.56-.031.566-.117.393-.214.483-.33.902-.52.833-.351.973-.237.905-.138.47-.25.707-.601.961-.587 1.045-.647 1.496-1.019 1.154-.78 1.204-.602 1.213-.476 1.446-.725 1.606-1.644.994-.817.523-.784.509-.94.572-.914.177-.505.254-.727.204-.64.24-.413.57-.782.306-.341v2.38h6.88v1.896h5.232v2.229h5.475v-7.161h2.488v-7.166h-2.303V81.887H247v-5.202h-2.663v-4.642h-2.248v-4.607h-1.965v-2.553h-6.182V61.5h2.81V58.83h-2.247V43.08h-2.389v-2.357h-4.776v-3.238h2.669v-3.052h-4.495v-1.991h-1.61l.007-.075-.096-.65-.268-.598v-2.476h-1.806V15.13h-2.194v-2.615h-2.69V0z"/>
        <path fill="#000" d="M97.838 176h20.558V75.678h-15.704c-2.998 15.105-18.988 17.67-28.697 17.67H68v14.25h29.838V176zm30.039-113.746h14.37c-3.988 3.737-10.016 11.637-10.625 17.44h5.296c.974-6.168 5.815-12.791 9.894-17.35v-3.676h-18.935v3.586zm22.04 17.44h4.567v-9.42h12.785v-3.402h-12.785v-5.469H168V58h-18.083v21.695z"/>
    </g>
</svg>
